<?xml version="1.0" encoding="UTF-8"?>
<svg xmlns="http://www.w3.org/2000/svg" xmlns:xlink="http://www.w3.org/1999/xlink" width="212.73pt" height="61.38pt" viewBox="0 0 212.73 61.38" version="1.1">
<defs>
<clipPath id="clip1">
  <path d="M 42 30 L 166 30 L 166 61.378906 L 42 61.378906 Z M 42 30 "/>
</clipPath>
<clipPath id="clip2">
  <path d="M 207 15 L 212.730469 15 L 212.730469 21 L 207 21 Z M 207 15 "/>
</clipPath>
</defs>
<g id="surface1">
<path style=" stroke:none;fill-rule:nonzero;fill:rgb(13.299561%,11.799622%,12.199402%);fill-opacity:1;" d="M 11.875 22.390625 C 12.460938 22.488281 13.328125 22.597656 14.160156 22.597656 L 14.375 22.59375 C 15.941406 22.558594 16.597656 22.371094 16.734375 20.664063 C 16.8125 19.722656 16.902344 18.78125 16.992188 17.835938 C 17.132813 16.359375 17.277344 14.835938 17.371094 13.308594 C 17.421875 12.527344 17.214844 11.4375 14.839844 11.007813 L 12.785156 10.875 Z M 20.292969 32.90625 C 17.929688 32.90625 1.539063 31.332031 0.839844 31.265625 L 0 31.1875 L 2.660156 1.289063 L 3.496094 1.351563 C 4.132813 1.398438 19.109375 2.507813 20.8125 2.667969 C 25.96875 3.148438 28.558594 5.414063 28.558594 9.414063 C 28.558594 10.214844 28.089844 15.28125 27.523438 21.324219 C 27.324219 23.441406 27.152344 25.246094 27.082031 26.109375 C 26.9375 27.789063 26.496094 32.90625 20.292969 32.90625 "/>
<path style=" stroke:none;fill-rule:nonzero;fill:rgb(13.299561%,11.799622%,12.199402%);fill-opacity:1;" d="M 43.011719 31.761719 L 30.671875 31.578125 L 31.175781 1.136719 L 43.5625 1.320313 Z M 43.011719 31.761719 "/>
<path style=" stroke:none;fill-rule:nonzero;fill:rgb(13.299561%,11.799622%,12.199402%);fill-opacity:1;" d="M 45.976563 32.25 L 45.691406 22.230469 L 46.53125 22.199219 C 46.601563 22.195313 53.707031 21.917969 56.515625 21.878906 C 57.640625 21.863281 58.078125 21.445313 58.101563 21.261719 C 58.125 21.105469 57.871094 20.703125 56.960938 20.433594 L 50.386719 18.480469 C 47.730469 17.691406 46.839844 17.011719 46.789063 14.535156 L 46.75 12.847656 C 46.722656 11.648438 46.695313 10.441406 46.667969 8.628906 C 46.636719 6.46875 46.570313 1.976563 53.835938 1.789063 C 59.933594 1.628906 70.414063 1.308594 70.414063 1.308594 L 71.253906 1.285156 L 71.644531 10.816406 L 70.804688 10.859375 C 70.746094 10.863281 64.851563 11.179688 61.839844 11.222656 C 60.644531 11.234375 59.914063 11.839844 59.832031 12.394531 C 59.753906 12.910156 60.242188 13.386719 61.128906 13.667969 C 63.726563 14.488281 65.019531 14.8125 66.386719 15.15625 L 67.222656 15.367188 C 69.191406 15.871094 71.3125 17.097656 71.371094 19.035156 C 71.410156 20.425781 71.449219 21.261719 71.605469 24.519531 C 71.699219 26.417969 71.601563 28.5625 70.171875 30.078125 C 69.046875 31.265625 67.3125 31.851563 64.867188 31.867188 C 59.394531 31.910156 46.949219 32.226563 46.824219 32.226563 "/>
<path style=" stroke:none;fill-rule:nonzero;fill:rgb(13.299561%,11.799622%,12.199402%);fill-opacity:1;" d="M 93.15625 31.410156 L 92.304688 31.347656 C 92.199219 31.339844 81.65625 30.589844 78.574219 30.308594 C 76.65625 30.136719 75.308594 29.839844 74.511719 28.871094 C 73.914063 28.148438 73.714844 27.175781 73.859375 25.714844 C 74.136719 22.949219 75.492188 7.195313 75.570313 5.703125 C 75.714844 2.863281 77.375 1.167969 80.011719 1.167969 C 80.199219 1.167969 80.390625 1.175781 80.59375 1.191406 C 83.910156 1.46875 94.730469 2.539063 94.839844 2.550781 L 95.65625 2.628906 L 95.089844 11.371094 L 94.578125 11.5625 C 94.078125 11.753906 93.457031 11.847656 92.6875 11.847656 C 91.664063 11.847656 90.582031 11.683594 89.792969 11.5625 C 89.472656 11.515625 89.207031 11.472656 89.023438 11.457031 C 88.917969 11.449219 88.800781 11.433594 88.671875 11.417969 C 88.433594 11.390625 88.152344 11.351563 87.863281 11.351563 C 87.074219 11.351563 86.792969 11.601563 86.710938 12.375 C 86.628906 13.160156 86.535156 13.992188 86.445313 14.820313 C 86.273438 16.375 86.097656 17.914063 85.996094 19.132813 C 85.84375 20.929688 85.960938 21.335938 87.558594 21.523438 C 89.855469 21.796875 92.894531 21.957031 92.925781 21.960938 L 93.789063 22.003906 "/>
<path style=" stroke:none;fill-rule:nonzero;fill:rgb(13.299561%,11.799622%,12.199402%);fill-opacity:1;" d="M 111.734375 9.875 C 110.511719 9.875 109.65625 10.261719 109.542969 10.46875 L 109.554688 20.894531 C 109.640625 21.019531 110.363281 21.339844 111.589844 21.339844 C 112.617188 21.339844 113.300781 21.117188 113.515625 20.96875 L 113.515625 10.488281 C 113.515625 10.195313 112.800781 9.875 111.734375 9.875 M 120.542969 30.515625 L 103.203125 30.515625 C 99.914063 30.515625 98.449219 28.960938 98.449219 25.476563 L 98.449219 5.984375 C 98.449219 3.808594 98.964844 1.308594 103.003906 1.308594 C 106.273438 1.308594 119.867188 1.347656 119.867188 1.347656 C 122.820313 1.347656 124.582031 2.828125 124.582031 5.308594 L 124.582031 25.320313 C 124.582031 27.550781 124.164063 30.515625 120.542969 30.515625 "/>
<path style=" stroke:none;fill-rule:nonzero;fill:rgb(13.299561%,11.799622%,12.199402%);fill-opacity:1;" d="M 148.617188 31.773438 C 148.160156 31.773438 147.640625 31.738281 147.027344 31.664063 C 143.546875 31.238281 134.140625 30.03125 131.191406 29.628906 C 129.65625 29.417969 128.324219 29.160156 127.550781 28.121094 C 126.875 27.21875 126.734375 25.875 127.078125 23.632813 C 127.71875 19.488281 130.507813 0.835938 130.507813 0.835938 L 130.632813 0.00390625 L 141.230469 1.515625 L 141.117188 2.351563 C 141.101563 2.46875 139.550781 13.78125 138.761719 18.484375 C 138.605469 19.410156 138.753906 20.175781 139.1875 20.691406 C 139.550781 21.113281 140.105469 21.359375 140.714844 21.359375 C 141.609375 21.359375 142.742188 20.816406 142.984375 19.289063 C 143.621094 15.222656 145.453125 2.988281 145.453125 2.988281 L 145.578125 2.164063 L 156.230469 3.582031 L 156.105469 4.433594 C 156.105469 4.433594 153.234375 24.046875 152.757813 27.277344 C 152.390625 29.738281 151.828125 31.773438 148.617188 31.773438 "/>
<path style=" stroke:none;fill-rule:nonzero;fill:rgb(13.299561%,11.799622%,12.199402%);fill-opacity:1;" d="M 183.777344 31.667969 L 172.964844 31.667969 L 169.386719 24.242188 L 169.386719 31.667969 L 158.082031 31.667969 L 158.082031 1.429688 L 167.519531 1.429688 L 172.3125 11.476563 L 172.3125 1.308594 L 183.777344 1.308594 "/>
<path style=" stroke:none;fill-rule:nonzero;fill:rgb(13.299561%,11.799622%,12.199402%);fill-opacity:1;" d="M 193.664063 32.757813 L 191.390625 13.886719 L 187.207031 14.285156 L 185.847656 3.195313 L 206.351563 1.066406 L 207.757813 12.203125 L 203.570313 12.640625 L 205.839844 31.367188 "/>
<g clip-path="url(#clip1)" clip-rule="nonzero">
<path style="fill:none;stroke-width:10;stroke-linecap:butt;stroke-linejoin:miter;stroke:rgb(0.39978%,0.799561%,0.799561%);stroke-opacity:1;stroke-miterlimit:4;" d="M 1597.460938 113.01875 C 1597.460938 53.604687 1548.867188 5.010937 1489.492188 5.010937 L 587.539063 5.010937 C 528.125 5.010937 479.53125 53.604687 479.53125 113.01875 L 479.53125 147.510937 C 479.53125 206.925 528.125 255.51875 587.539063 255.51875 L 1489.492188 255.51875 C 1548.867188 255.51875 1597.460938 206.925 1597.460938 147.510937 Z M 1597.460938 113.01875 " transform="matrix(0.1,0,0,-0.1,0,61.38)"/>
</g>
<path style=" stroke:none;fill-rule:nonzero;fill:rgb(13.299561%,11.799622%,12.199402%);fill-opacity:1;" d="M 77.996094 39.109375 L 58.394531 39.109375 L 58.394531 43.839844 L 64.726563 43.839844 L 64.726563 57.816406 L 71.632813 57.816406 L 71.632813 43.839844 L 77.996094 43.839844 "/>
<path style=" stroke:none;fill-rule:nonzero;fill:rgb(13.299561%,11.799622%,12.199402%);fill-opacity:1;" d="M 85.894531 57.8125 L 92.769531 57.8125 L 92.769531 39.105469 L 85.894531 39.105469 Z M 85.894531 57.8125 "/>
<path style=" stroke:none;fill-rule:nonzero;fill:rgb(13.299561%,11.799622%,12.199402%);fill-opacity:1;" d="M 112.601563 43.519531 L 108.410156 43.519531 L 108.410156 47.230469 L 112.535156 47.230469 C 115.636719 47.230469 115.796875 43.519531 112.601563 43.519531 M 121.234375 44.382813 C 121.234375 48.605469 117.523438 48.925781 117.523438 48.925781 L 117.523438 49.210938 C 117.523438 49.210938 121.234375 49.085938 121.234375 53.625 L 121.234375 57.6875 L 114.871094 57.6875 C 114.871094 57.6875 114.742188 54.550781 114.679688 53.882813 C 114.613281 53.210938 114.199219 51.292969 112.695313 51.292969 L 108.410156 51.292969 L 108.410156 57.816406 L 101.855469 57.816406 L 101.855469 39.109375 L 113.398438 39.109375 C 116.886719 39.109375 121.234375 40.164063 121.234375 44.382813 "/>
<path style=" stroke:none;fill-rule:nonzero;fill:rgb(13.299561%,11.799622%,12.199402%);fill-opacity:1;" d="M 136.296875 53.304688 L 136.296875 50.332031 L 145.058594 50.332031 L 145.058594 46.046875 L 136.296875 46.046875 L 136.296875 43.550781 L 146.59375 43.550781 L 146.59375 39.109375 L 129.578125 39.109375 L 129.578125 57.816406 L 146.976563 57.816406 L 146.976563 53.304688 "/>
<g clip-path="url(#clip2)" clip-rule="nonzero">
<path style=" stroke:none;fill-rule:nonzero;fill:rgb(13.299561%,11.799622%,12.199402%);fill-opacity:1;" d="M 209.894531 17.679688 C 210.132813 17.679688 210.324219 17.648438 210.472656 17.578125 C 210.609375 17.511719 210.679688 17.371094 210.679688 17.148438 C 210.679688 16.832031 210.441406 16.671875 209.96875 16.671875 L 209.300781 16.671875 L 209.300781 17.679688 Z M 209.300781 19.488281 L 208.8125 19.488281 L 208.8125 16.265625 L 210.058594 16.265625 C 210.433594 16.265625 210.714844 16.335938 210.902344 16.480469 C 211.089844 16.628906 211.183594 16.859375 211.183594 17.175781 C 211.183594 17.449219 211.109375 17.660156 210.964844 17.808594 C 210.808594 17.945313 210.609375 18.035156 210.363281 18.074219 L 211.273438 19.488281 L 210.71875 19.488281 L 209.867188 18.089844 L 209.300781 18.089844 Z M 207.914063 19.066406 C 208.117188 19.433594 208.394531 19.714844 208.746094 19.914063 C 209.097656 20.117188 209.480469 20.21875 209.894531 20.21875 C 210.3125 20.21875 210.691406 20.117188 211.042969 19.914063 C 211.394531 19.710938 211.671875 19.425781 211.871094 19.058594 C 212.074219 18.699219 212.171875 18.304688 212.171875 17.875 C 212.171875 17.5625 212.113281 17.257813 212 16.960938 C 211.886719 16.683594 211.726563 16.433594 211.519531 16.214844 C 211.316406 16 211.070313 15.835938 210.785156 15.71875 C 210.503906 15.597656 210.207031 15.539063 209.894531 15.539063 C 209.589844 15.539063 209.292969 15.597656 209.011719 15.710938 C 208.730469 15.828125 208.484375 15.992188 208.269531 16.207031 C 208.058594 16.417969 207.894531 16.667969 207.78125 16.953125 C 207.722656 17.113281 207.679688 17.257813 207.65625 17.390625 C 207.625 17.546875 207.609375 17.707031 207.609375 17.875 C 207.609375 18.304688 207.714844 18.703125 207.914063 19.066406 M 208.804688 20.476563 C 208.449219 20.332031 208.144531 20.136719 207.894531 19.882813 C 207.625 19.621094 207.417969 19.316406 207.269531 18.972656 C 207.117188 18.628906 207.039063 18.265625 207.039063 17.875 C 207.039063 17.476563 207.117188 17.109375 207.269531 16.769531 C 207.417969 16.421875 207.628906 16.121094 207.898438 15.863281 C 208.164063 15.617188 208.464844 15.421875 208.8125 15.277344 C 209.148438 15.144531 209.507813 15.078125 209.894531 15.078125 C 210.285156 15.078125 210.652344 15.148438 210.992188 15.285156 C 211.324219 15.421875 211.625 15.613281 211.894531 15.871094 C 212.148438 16.121094 212.355469 16.417969 212.511719 16.769531 C 212.660156 17.113281 212.734375 17.484375 212.734375 17.875 C 212.734375 18.414063 212.605469 18.890625 212.347656 19.3125 C 212.089844 19.730469 211.742188 20.066406 211.304688 20.3125 C 210.863281 20.558594 210.394531 20.683594 209.894531 20.683594 C 209.503906 20.683594 209.140625 20.613281 208.804688 20.476563 "/>
</g>
<path style=" stroke:none;fill-rule:nonzero;fill:rgb(92.199707%,12.199402%,14.898682%);fill-opacity:1;" d="M 14.160156 24.296875 C 12.519531 24.296875 10.851563 23.929688 10.78125 23.917969 L 10.058594 23.757813 L 11.222656 9.066406 L 15.050781 9.324219 C 18.742188 9.988281 19.148438 12.171875 19.070313 13.414063 C 18.972656 14.96875 18.824219 16.507813 18.683594 17.996094 C 18.597656 18.933594 18.507813 19.871094 18.429688 20.804688 C 18.152344 24.203125 15.722656 24.261719 14.414063 24.296875 Z M 1.84375 29.65625 C 5.296875 29.984375 18.304688 31.207031 20.292969 31.207031 C 24.375 31.207031 25.152344 28.6875 25.386719 25.964844 C 25.460938 25.097656 25.628906 23.289063 25.828125 21.164063 C 26.238281 16.796875 26.859375 10.199219 26.859375 9.414063 C 26.859375 5.445313 23.570313 4.632813 20.703125 4.367188 C 19.203125 4.226563 7.464844 3.351563 4.207031 3.109375 "/>
<path style=" stroke:none;fill-rule:nonzero;fill:rgb(92.199707%,12.199402%,14.898682%);fill-opacity:1;" d="M 32.398438 29.902344 L 41.34375 30.035156 L 41.832031 2.996094 L 32.847656 2.863281 Z M 32.398438 29.902344 "/>
<path style=" stroke:none;fill-rule:nonzero;fill:rgb(92.199707%,12.199402%,14.898682%);fill-opacity:1;" d="M 47.4375 23.863281 L 47.625 30.507813 C 50.539063 30.433594 60.203125 30.203125 64.851563 30.171875 C 66.785156 30.15625 68.160156 29.730469 68.9375 28.910156 C 69.929688 27.859375 69.984375 26.144531 69.910156 24.601563 C 69.75 21.324219 69.710938 20.484375 69.667969 19.085938 C 69.648438 18.304688 68.441406 17.433594 66.800781 17.011719 L 65.96875 16.804688 C 64.578125 16.453125 63.265625 16.125 60.617188 15.289063 C 58.550781 14.632813 57.988281 13.234375 58.148438 12.148438 C 58.339844 10.863281 59.660156 9.550781 61.820313 9.519531 C 64.121094 9.492188 68.140625 9.296875 69.875 9.207031 L 69.625 3.035156 C 67.019531 3.113281 58.941406 3.355469 53.878906 3.488281 C 48.292969 3.632813 48.335938 6.390625 48.371094 8.605469 C 48.398438 10.410156 48.425781 11.613281 48.453125 12.808594 L 48.488281 14.5 C 48.519531 15.902344 48.523438 16.152344 50.871094 16.851563 L 57.449219 18.804688 C 59.371094 19.378906 59.910156 20.609375 59.785156 21.492188 C 59.65625 22.4375 58.726563 23.546875 56.539063 23.578125 C 54.328125 23.609375 49.410156 23.789063 47.4375 23.863281 "/>
<path style=" stroke:none;fill-rule:nonzero;fill:rgb(92.199707%,12.199402%,14.898682%);fill-opacity:1;" d="M 80.011719 2.867188 C 78.289063 2.867188 77.367188 3.851563 77.269531 5.789063 C 77.1875 7.335938 75.84375 22.941406 75.550781 25.882813 C 75.425781 27.144531 75.644531 27.574219 75.824219 27.789063 C 76.183594 28.226563 77.023438 28.464844 78.726563 28.617188 C 81.277344 28.847656 88.992188 29.40625 91.574219 29.589844 L 91.976563 23.605469 C 90.890625 23.539063 88.972656 23.40625 87.359375 23.214844 C 84.238281 22.84375 84.136719 20.921875 84.300781 18.988281 C 84.40625 17.757813 84.578125 16.199219 84.753906 14.632813 C 84.847656 13.808594 84.9375 12.980469 85.019531 12.195313 C 85.195313 10.554688 86.203125 9.652344 87.863281 9.652344 C 88.222656 9.652344 88.578125 9.695313 88.875 9.730469 L 89.167969 9.761719 C 89.378906 9.78125 89.683594 9.828125 90.046875 9.882813 C 90.78125 9.992188 91.792969 10.144531 92.6875 10.144531 C 92.984375 10.144531 93.242188 10.128906 93.46875 10.097656 L 93.855469 4.160156 C 91.257813 3.90625 83.222656 3.117188 80.453125 2.886719 C 80.300781 2.875 80.152344 2.867188 80.011719 2.867188 "/>
<path style=" stroke:none;fill-rule:nonzero;fill:rgb(92.199707%,12.199402%,14.898682%);fill-opacity:1;" d="M 111.589844 23.039063 C 109.285156 23.039063 107.855469 22.21875 107.855469 20.894531 L 107.855469 10.410156 C 107.855469 8.875 109.867188 8.175781 111.734375 8.175781 C 113.851563 8.175781 115.214844 9.085938 115.214844 10.492188 L 115.214844 21.09375 C 115.214844 21.503906 115.03125 22.261719 113.785156 22.707031 C 113.1875 22.921875 112.40625 23.039063 111.589844 23.039063 M 103.003906 3.007813 C 100.5625 3.007813 100.148438 3.925781 100.148438 5.984375 L 100.148438 25.476563 C 100.148438 28.316406 101.132813 28.8125 103.203125 28.8125 L 120.542969 28.8125 C 121.824219 28.8125 122.882813 28.550781 122.882813 25.320313 L 122.882813 5.308594 C 122.882813 4.75 122.882813 3.046875 119.867188 3.046875 C 119.863281 3.046875 106.273438 3.007813 103.003906 3.007813 "/>
<path style=" stroke:none;fill-rule:nonzero;fill:rgb(92.199707%,12.199402%,14.898682%);fill-opacity:1;" d="M 132.0625 1.925781 C 131.515625 5.59375 129.316406 20.273438 128.757813 23.894531 C 128.496094 25.59375 128.546875 26.613281 128.914063 27.105469 C 129.257813 27.570313 130.0625 27.757813 131.421875 27.945313 C 134.363281 28.347656 143.757813 29.550781 147.234375 29.976563 C 147.78125 30.042969 148.230469 30.074219 148.617188 30.074219 C 150.21875 30.074219 150.675781 29.714844 151.074219 27.027344 C 151.492188 24.203125 153.742188 8.84375 154.296875 5.039063 L 147.011719 4.070313 C 146.589844 6.886719 145.199219 16.121094 144.664063 19.550781 C 144.285156 21.960938 142.351563 23.058594 140.714844 23.058594 C 139.605469 23.058594 138.574219 22.59375 137.890625 21.785156 C 137.355469 21.152344 136.898438 20.03125 137.085938 18.203125 C 137.496094 14.234375 138.941406 5.675781 139.316406 2.960938 "/>
<path style=" stroke:none;fill-rule:nonzero;fill:rgb(92.199707%,12.199402%,14.898682%);fill-opacity:1;" d="M 174.164063 29.96875 L 182.078125 29.96875 L 182.078125 3.007813 L 174.136719 3.007813 L 174.136719 19.308594 L 166.449219 3.128906 L 159.78125 3.128906 L 159.78125 29.96875 L 167.605469 29.96875 L 167.605469 16.671875 "/>
<path style=" stroke:none;fill-rule:nonzero;fill:rgb(92.199707%,12.199402%,14.898682%);fill-opacity:1;" d="M 192.882813 12.035156 L 195.152344 30.875 L 203.945313 29.871094 L 201.671875 11.128906 L 205.855469 10.691406 L 204.871094 2.929688 L 187.746094 4.707031 L 188.695313 12.433594 "/>
</g>
</svg>
