<?xml version="1.0" encoding="UTF-8" standalone="no"?>
<svg
   xmlns:dc="http://purl.org/dc/elements/1.1/"
   xmlns:cc="http://creativecommons.org/ns#"
   xmlns:rdf="http://www.w3.org/1999/02/22-rdf-syntax-ns#"
   xmlns:svg="http://www.w3.org/2000/svg"
   xmlns="http://www.w3.org/2000/svg"
   viewBox="0 0 431 85"
   height="85"
   width="431"
   y="0px"
   x="0px"
   version="1.1">

<path
   style="stroke-width:1.464028"
   d="m 178.18047,16.733839 c -14.52317,0 -26.29396,11.773713 -26.29396,26.295407 0,14.521693 11.77079,26.292478 26.29396,26.292478 14.52168,0 26.29246,-11.770785 26.29246,-26.292478 0,-14.521694 -11.76931,-26.295407 -26.29246,-26.295407 z m 0,41.817031 c -8.95694,0 -14.7618,-6.948275 -14.7618,-15.521624 0,-8.571883 5.87222,-15.523089 14.7618,-15.523089 8.88664,0 14.76179,6.951206 14.76179,15.523089 0,8.573349 -5.80634,15.521624 -14.76179,15.521624 z m -68.55311,9.589384 h 10.907 V 47.932277 h 22.05267 V 37.558173 H 120.53436 V 28.19425 h 26.51647 V 17.874318 H 109.62736 Z M 404.17074,57.848137 v -9.91586 h 22.68218 V 37.558173 H 404.17074 V 28.19425 h 26.51647 V 17.874318 h -37.42348 v 50.2674 h 37.68702 V 57.849601 h -26.78001 z m -88.98361,10.292117 h 10.90701 V 17.874319 H 315.18713 Z M 359.74628,46.206187 346.27137,17.872854 H 334.15653 L 359.6804,68.812242 385.20133,17.872854 H 373.26805 Z M 261.40605,28.19425 h 16.1863 V 68.141718 H 288.4569 V 28.19425 h 16.1863 V 17.874318 H 261.40752 V 28.19425 Z m -7.03611,4.708314 c 0,-8.299574 -6.72867,-15.02971 -15.03119,-15.02971 h -25.83277 v 50.2674 h 10.90848 V 47.932277 h 4.11392 l 14.13519,20.209441 h 13.3988 L 241.22444,47.810762 c 7.41091,-0.92673 13.1455,-7.246939 13.1455,-14.908198 z m -29.95548,4.655609 V 28.19425 h 14.21718 c 2.59572,0 4.69953,2.112593 4.69953,4.708314 0,2.595722 -2.10381,4.655609 -4.69953,4.655609 z"
   id="path5546" /><path
   d="M 51.757253,41.516904 26.688704,55.990286 v 13.23042 L 51.757253,54.744399 Z M 42.549983,0 C 19.077221,0 0.04925,19.027971 0.04925,42.497803 c 0,13.328513 6.1357411,25.223739 15.736836,33.018224 L 26.690167,69.220706 C 17.585377,63.803803 11.483309,53.865982 11.483309,42.497803 c 0,-17.155479 13.909729,-31.065208 31.068138,-31.065208 5.793158,0 11.211526,1.58847 15.853958,4.349626 L 26.688704,34.092818 V 47.321776 L 58.408333,29.006787 V 15.78515 c 9.10479,5.416903 15.208322,15.351798 15.208322,26.712653 0,17.161337 -13.908265,31.071067 -31.068137,31.071067 -5.794623,0 -11.217382,-1.587007 -15.859814,-4.348164 V 81.940182 C 31.590269,83.913691 36.942755,85 42.548518,85 66.022743,85 85.04925,65.973493 85.04925,42.497803 85.050722,19.026507 66.022743,0 42.549983,0 Z"
   id="path5548"
   style="fill:#64be49;stroke-width:1.464028" />
</svg>
