<svg xmlns="http://www.w3.org/2000/svg" width="600" height="294" fill="#1e4388" xmlns:v="https://vecta.io/nano"><path d="M93.1 160.64c-5.6-3.4-14.4-7-26.8-11.1-14.6-4.8-24.1-8.6-28.5-11.4-4.3-2.8-6.6-6-6.6-10.1 0-8.1 8.3-12.1 25-12.1 10.9 0 24.4 2.8 40.5 8.4l10.2-20.2c-15.6-6-32.1-9-49.6-9-17.7 0-31.7 2.9-41.9 9S0 118.64 0 129.44c0 9 3.1 16.3 9.1 22 6 5.6 17.7 11.2 34.8 17 8.8 2.9 15.7 5.5 20.6 7.7s8.4 4.5 10.7 6.6c2.1 2.1 3.2 4.8 3.2 8 0 10-9.7 15-29.2 15-15 0-31.3-3.4-48.8-10.2v23.3c12.1 5 27.9 7.7 47.8 7.7 19.8 0 34.9-3.4 45.4-10s15.8-16.1 15.8-28.5c0-6-1.4-11.4-4.1-15.7-2.5-4.6-6.6-8.3-12.2-11.7m90.5-65.5c-21.2 0-37.7 5.9-49.9 17.7-12.1 11.8-18.1 28.1-18.1 48.7 0 20.1 6.5 35.9 19.6 47.4 13 11.5 31.1 17.3 54.3 17.3 10.1 0 19.1-.7 27.1-2 7.9-1.3 15.7-3.5 23.4-6.6v-22c-8.7 3.2-16.8 5.6-24.4 7s-15.7 2.1-24.5 2.1c-13.3 0-23.7-3.4-31.1-9.8-7.3-6.5-11.2-15.7-11.6-27.8-.8-7 .3-17.3.6-19.9 1.1-10.4 4.8-18.2 10.8-23.7s14.2-8.1 24.1-8.1c10.1 0 18 2.7 23.7 8 5.8 5.3 8.7 13.3 8.8 23.7h-59c-2.4 0-3.8 19.5-1.4 19.5h91.6v-14.6c0-17.8-5.8-31.7-17.1-41.8-11.7-9.9-27.3-15.1-46.9-15.1m120.7 104.8c-3.8-3.1-5.8-7.9-5.8-14.3v-67.7h45.9v-20.3h-45.9v-28.2H279s-1.7 18.7-10.8 26.8-21.7 9.8-21.7 9.8v11.9h20.3v68.2c0 26.8 15 38 44.9 40.3 5.9.4 11.5 0 17.1-1.3 6.3-1.4 12.8-5.2 15.4-8.1v-19.4c-7.4 4.3-17.4 7.6-25.1 7-5.9-.5-11-1.7-14.8-4.7m129.8-104.8c-9.1 0-17.7 2.2-25.7 6.6-8 4.5-14.3 10.4-19.4 18h-1.7l-4.2-22.3h-24.5v126.5h31.6v-66.1c0-11.2 3.9-20.3 11.8-27.3s17.8-14.2 30.6-14.2c4.8 0 10.2-.1 14.7.8l2.5-20.8c-4.1-.8-9.3-1.2-15.7-1.2m117.4 10.6c-9.7-7-13.9-9-31.8-11.9-8.4-1.4-30-1.5-39.7 1-13.6 3.6-15.4 4.8-23.1 9.4l6.5 16.3c6.3-4.3 15-8 22-9.3s18-1.1 24.8.7c9 2.4 13.3 5.8 17.8 9.7 4.5 4.1 6.6 10.1 6.6 18.1v6.7c0 2.5 0 12.8-.3 18.7v1.4 7.7c0 9.8-3.5 17.5-10.4 23-7 5.5-16.1 8.1-27.6 8.1-7.9 0-13.7-1.5-17.8-4.6-3.9-3.1-5.9-7.4-5.9-13 0-7.7 3.4-13.6 10.1-17.4s17.7-5.9 32.5-6.3l10.5-.4v-17l-16.8.4c-23.3.6-40.7 4.2-52 10.8-11.4 6.6-17.1 16.4-17.1 29.5 0 12.3 4.1 21.7 12.3 28.5 8.3 6.7 19.6 10.1 34.2 10.1 11.4 0 20.8-1.4 27.9-4.2 7.3-2.8 14.4-8 21.6-15.7h1.1l6.3 17.7h22.6v-85.3c.1-14.7-4.8-25.6-14.3-32.7m48.5 106.1c0 6.9-5.3 12.2-12.3 12.2-6.9 0-12.3-5.3-12.3-12.2 0-6.6 5.5-11.9 12.3-11.9 7 0 12.3 5.3 12.3 11.9m-21.6 0c0 7.3 7.4 12.6 15.8 7.7 5.8-8.1 1.1-17.3-6.6-17.3-5.3 0-9.2 4.4-9.2 9.6m7.4 6.3H583v-11.9c1.1-.3 2.7-.4 4.6-.4 2.2 0 3.2.4 4.2.8.7.6 1.1 1.4 1.1 2.7s-1 2.4-2.5 2.8v.1c1.1.4 1.8 1.3 2.2 2.9.4 1.8.6 2.5.8 2.9h-2.9c-.4-.4-.6-1.5-1-2.9-.3-1.3-1-2-2.5-2h-1.4v4.9h.2zm0-6.7h1.3c1.5 0 2.8-.6 2.8-1.7s-.8-1.8-2.5-1.8c-.7 0-1.3 0-1.5.1v3.4zM209.4 50.14c6-37.3 83.9-60.3 174.6-45.7 63.4 10.2 116.5 38.4 140.4 64.5-27.5-20.9-73.1-35.6-126.2-44.2-90.7-14.6-169.1.6-175.2 37.9-1.8 11.2 3.2 22.9 13.5 34.1-19.2-14.9-29.6-31.2-27.1-46.6m224.5 193.9c-6 37.3-83.9 60.3-174.6 45.7-63.4-10.2-116.5-38.4-140.4-64.5 27.5 20.9 73.1 35.6 126.2 44.2 90.7 14.6 169.1-.6 175.2-37.9 1.8-11.2-3.2-22.9-13.5-34.1 19.3 14.9 29.7 31.2 27.1 46.6"/></svg>