<svg xmlns="http://www.w3.org/2000/svg" height="800" width="1200" version="1.1" id="Layer_1" x="0" y="0" xml:space="preserve" viewBox="-93.2964 -39.75 808.5688 238.5"><style type="text/css" id="style4597">.st0{fill:#232b5f}.st1{fill:#0f85a6}.st2{fill:#fff}</style><g id="XMLID_2_" transform="translate(-43.7 -219)"><g id="XMLID_50_"><g id="XMLID_27_" transform="translate(5.396 46.677) scale(.87652)"><path id="XMLID_28_" class="st0" d="M283.8 237.8v83.1c0 10.8.7 12.1 13.5 12.1v5.8h-44.7V333c12.7 0 13.4-1.3 13.4-12.1v-83.1h-14c-8.7 0-10 .7-13.1 18.6h-7.3l3.5-26.2h79.7l3.5 26.2h-7.1c-3.2-18-4.7-18.6-13.2-18.6z" fill="#232b5f"/><path id="XMLID_30_" class="st0" d="M350.9 284.9c0-11.2-4.4-15.7-12.7-15.7-7.6 0-11.9 4.5-14.6 11.5-1.2 3.1-3.1 4.9-7.6 4.9s-6.3-2.8-6.3-6c0-7.3 9.2-16.3 29.5-16.3 15 0 28.2 3.9 28.2 24.6V323c0 7.6 1.6 10.6 4.7 10.6 1.6 0 3.1-.4 4.2-1.2l1.2 4.9c-3.3 1.3-7 2.2-12.8 2.2-7.4 0-11.1-2.6-13-8.1h-.6c-5.1 5.1-11.5 9.2-23 9.2-10.6 0-22-6.1-22-19.4 0-7.6 3.1-13.5 10.5-18.2 5.7-3.6 13.7-6.7 24.2-9l9.9-2.5v-6.6zm0 12.4c-13.1 3.9-27.1 9.3-27.1 21.5 0 11.5 7.4 13.5 12.4 13.5 6.7 0 11.3-3.8 14.7-7.3z" fill="#232b5f"/><path id="XMLID_33_" class="st0" d="M374.9 333.6c9.3 0 10-1.6 10-11.5v-74.5c0-9.2-.7-10.5-10-10.5v-4.7c8.3-1 16.3-3.1 24.6-7l2 1.2v95.6c0 9.7.6 11.3 9.3 11.3v5.1h-35.9z" fill="#232b5f"/><path id="XMLID_35_" class="st0" d="M442.2 264.4v57.9c0 10 .7 11.3 9.3 11.3v5.1h-35.9v-5.1c9.3 0 9.9-1.3 9.9-11.5v-36.4c0-10.2-.4-10.8-9.9-10.8v-4.7c8.6-.9 16.2-3.1 24.7-7zm.8-20.2c0 6.8-4.4 11.1-9.9 11.1s-9.7-4.2-9.7-11.1c0-6.5 4.2-10.9 9.7-10.9 5.9-.1 9.9 4.6 9.9 10.9z" fill="#232b5f"/><path id="XMLID_38_" class="st0" d="M513.8 272.5c4.9 4.7 7.6 10.6 7.6 17.9 0 18.5-14.4 27.4-31.7 27.4-5.4 0-10.5-.9-15.1-2.8-3.9 2.6-6.3 5.1-6.3 8.1 0 4.2 4.2 6.4 12.8 6.4h16.6c23.4 0 31.1 10.3 31.1 21.4 0 15.7-16.4 27.1-41.2 27.1-21.7 0-35.9-6.1-35.9-18.8 0-9.5 8.7-16 17.5-19.4-6.3-1.5-12.2-5.4-12.2-12.2 0-7 6-11.3 12.4-15-7.4-4.5-12.4-12.4-12.4-22.1 0-17.3 13.7-27.2 32-27.2 8.3 0 14.8 2 19.4 4.7l20.7-2.8v8.4zm-37.6 69.6c-6.8 4.4-10.9 9.5-10.9 15.4 0 8.9 8.9 14.7 23 14.7 16.9 0 26.8-8 26.8-17.3 0-6.1-3.9-12.8-20.1-12.8zm28.1-51.7c0-10.9-4.7-21.2-15.3-21.2-10.2 0-15.3 10.3-15.3 21.2 0 12.9 5.8 21.4 15.6 21.4 10.5 0 15-9.3 15-21.4z" fill="#232b5f"/><path id="XMLID_42_" class="st0" d="M591.6 322.7c-6.5 12.1-16.7 17.9-29.7 17.9-17.9 0-35.5-8.9-35.5-40.3 0-18.8 10.3-37 33.8-37 26.8 0 31.6 24.3 31.6 37.8H544c0 9.6 1.3 17.6 5.2 23.9 3.6 5.7 9.3 8.9 15.6 8.9 10.2 0 17.6-6.1 21.4-13.8zm-16.9-27.5c0-8.3-1.3-26-14.7-26-6.8 0-15.4 5.5-16 26z" fill="#232b5f"/><path id="XMLID_45_" class="st0" d="M619.7 276.3c6.5-8 14.7-12.9 24.3-12.9 16.1 0 22.7 8.7 22.7 24v35.2c0 9.3.7 11.1 7.7 11.1v5.1h-31.9v-5.1c7 0 7.6-1 7.6-11.5v-34.3c0-11.8-3.5-16.9-11.9-16.9-5.8 0-12.5 5.4-18.5 13.7v37.7c0 10.3.3 11.3 7.3 11.3v5.1h-33.2v-5.1c8.4 0 9.3-1.2 9.3-11.5v-36.1c0-9.9-1-11.2-9.3-11.1v-4.7c7.7-1 15.7-3.2 22.7-7l2.3 1.2.6 11.8z" fill="#232b5f"/><path id="XMLID_47_" class="st0" d="M676.4 271.4v-4.8c11.5-1 17-7.7 21.1-23.4h5.1v22.1h18.5v6.1h-18.5v49.5c0 8.9 2.8 12.5 8.4 12.5 3.9 0 7.1-1.3 10.6-3.9l3.1 4.8c-4.8 4.1-10.6 6.4-18.9 6.4-10.2 0-19.8-4.1-19.8-19.8v-49.5z" fill="#232b5f"/></g><g id="XMLID_49_"><path id="XMLID_1_" class="st1" fill="#0f85a6" stroke-width=".877" d="M45.102 219h137.613v137.613H45.102z"/><g id="XMLID_52_" transform="translate(5.396 46.677) scale(.87652)"><path id="XMLID_74_" class="st2" d="M64.4 233.4c-6.6 0-12.9.2-19.1.7v47.6c6.1.4 12.5.7 19.1.7 45.1 0 81.7-11 81.7-24.5s-36.6-24.5-81.7-24.5z" fill="#fff"/><path id="XMLID_71_" class="st1" d="M59.7 236.1c-4.9 0-9.7.1-14.4.4v41.8c4.6.3 9.4.4 14.4.4 40.4 0 73.2-9.5 73.2-21.3s-32.8-21.3-73.2-21.3z" fill="#0f85a6"/><path id="XMLID_68_" class="st2" d="M53.9 242c-2.9 0-5.8.1-8.6.2v28.7c2.8.1 5.7.2 8.6.2 31.3 0 56.7-6.5 56.7-14.5 0-8.1-25.4-14.6-56.7-14.6z" fill="#fff"/><path id="XMLID_69_" class="st1" d="M54.2 244.5c-3 0-6 .1-8.9.2v23.6c2.9.2 5.8.2 8.9.2 24.7 0 44.7-5.4 44.7-12-.1-6.6-20-12-44.7-12z" fill="#0f85a6"/><path id="XMLID_70_" class="st2" d="M47.8 249.3h-2.4v14h2.4c14.8 0 26.9-3.1 26.9-7-.1-3.9-12.1-7-26.9-7z" fill="#fff"/><path id="XMLID_67_" class="st1" d="M47.8 252.2h-2.5v8.5h2.5c9.9 0 17.9-1.9 17.9-4.3 0-2.3-8-4.2-17.9-4.2z" fill="#0f85a6"/></g><g id="XMLID_57_"><path id="XMLID_72_" class="st2" d="M182.715 278.077c-7.1-.438-14.462-.613-21.912-.613-64.687 0-117.103 15.69-117.103 35.148 0 19.37 52.416 35.148 117.103 35.148 7.538 0 14.813-.263 21.912-.613z" fill="#fff" stroke-width=".877"/><path id="XMLID_75_" class="st1" d="M182.715 281.233c-5.171-.176-10.518-.351-15.952-.351-60.392 0-109.39 13.849-109.39 30.941s48.998 30.941 109.39 30.941c5.434 0 10.693-.088 15.952-.35z" fill="#0f85a6" stroke-width=".877"/><path id="XMLID_73_" class="st2" d="M182.715 283.336c-2.717-.087-5.434-.087-8.239-.087-51.89 0-93.962 11.394-93.962 25.506s42.072 25.507 93.962 25.507c2.805 0 5.522 0 8.24-.088z" fill="#fff" stroke-width=".877"/><path id="XMLID_76_" class="st1" d="M182.715 286.141c-3.155-.087-6.31-.175-9.554-.175-44.614 0-80.727 9.992-80.727 22.351 0 12.359 36.113 22.351 80.727 22.351 3.244 0 6.399-.087 9.554-.175z" fill="#0f85a6" stroke-width=".877"/><path id="XMLID_66_" class="st2" d="M182.715 289.735c-37.953.438-68.193 7.888-68.193 17.004 0 9.116 30.24 16.566 68.193 17.005z" fill="#fff" stroke-width=".877"/><path id="XMLID_65_" class="st1" d="M182.715 292.803c-29.538.35-52.941 6.223-52.941 13.323 0 7.187 23.49 12.972 52.941 13.323z" fill="#0f85a6" stroke-width=".877"/><path id="XMLID_64_" class="st2" d="M182.715 298.062c-18.056.175-32.43 3.418-32.43 7.362 0 3.945 14.374 7.188 32.43 7.363z" fill="#fff" stroke-width=".877"/><path id="XMLID_63_" class="st1" d="M182.715 300.253c-12.358.175-22.088 2.279-22.088 4.909s9.73 4.733 22.088 4.908z" fill="#0f85a6" stroke-width=".877"/></g></g></g><g id="XMLID_51_" transform="translate(5.396 46.677) scale(.87652)"><path id="XMLID_113_" class="st0" d="M733 336c0-5.6 4.6-10.2 10.2-10.1 5.6 0 10.1 4.6 10.1 10.2s-4.6 10.1-10.2 10.1c-5.6-.1-10.1-4.6-10.1-10.2zm10.1 8c4.5 0 8.1-3.6 8.1-8.1s-3.6-8.1-8.1-8.1-8.1 3.6-8.1 8.1 3.6 8.1 8.1 8.1z" fill="#232b5f"/><path id="XMLID_107_" class="st0" d="M738.7 341v-10.6h4.5c.6 0 1.2.1 1.8.2.4.1.8.3 1.2.6.4.3.6.7.7 1.2.1.4.1.8.1 1.2 0 .4-.1.7-.2 1-.2.4-.5.7-.8 1-.3.2-.6.3-.9.4h-.1.1c.4.1.7.3 1 .6.3.3.5.7.8 1.1.4.8.8 1.7 1.2 2.5l.3.6v.1h-2.9c-.4-.9-.9-1.8-1.3-2.7-.1-.3-.3-.5-.5-.8-.3-.3-.6-.5-1-.5-.4-.1-.8 0-1.1 0v4c-1.1.1-2 .1-2.9.1zm2.7-5.9h1.2c.2 0 .5 0 .7-.1.4-.1.6-.3.7-.7.1-.4.1-.7 0-1.1-.1-.4-.3-.6-.7-.7-.3-.1-.5-.1-.8-.1h-1.3c.2.9.2 1.8.2 2.7z" fill="#232b5f"/></g></g></svg>